<svg xmlns="http://www.w3.org/2000/svg" version="1.1" xmlns:xlink="http://www.w3.org/1999/xlink" width="1000" height="1000"><metadata><rdf:RDF xmlns:rdf="http://www.w3.org/1999/02/22-rdf-syntax-ns#" xmlns:dc="http://purl.org/dc/elements/1.1/"><rdf:Description><dc:creator>RealFaviconGenerator</dc:creator><dc:source>https://realfavicongenerator.net</dc:source></rdf:Description></rdf:RDF></metadata><style>
    #light-icon {
      display: inline;
    }
    #dark-icon {
      display: none;
    }

    @media (prefers-color-scheme: dark) {
      #light-icon {
        display: none;
      }
      #dark-icon {
        display: inline;
      }
    }
  </style><g id="light-icon"><svg xmlns="http://www.w3.org/2000/svg" version="1.1" xmlns:xlink="http://www.w3.org/1999/xlink" width="1000" height="1000"><g clip-path="url(#SvgjsClipPath1201)"><rect width="1000" height="1000" fill="#ffffff"></rect><g transform="matrix(3.5,0,0,3.5,150,150)"><svg xmlns="http://www.w3.org/2000/svg" viewBox="0 0 200 200" fill="none" width="200" height="200"><line x1="180.0" y1="100.0" x2="140.0" y2="169.3" stroke="currentColor" stroke-width="2.5" stroke-linecap="round"></line><line x1="140.0" y1="169.3" x2="60.0" y2="169.3" stroke="currentColor" stroke-width="2.5" stroke-linecap="round"></line><line x1="60.0" y1="169.3" x2="20.0" y2="100.0" stroke="currentColor" stroke-width="2.5" stroke-linecap="round"></line><line x1="20.0" y1="100.0" x2="60.0" y2="30.7" stroke="currentColor" stroke-width="2.5" stroke-linecap="round"></line><line x1="60.0" y1="30.7" x2="140.0" y2="30.7" stroke="currentColor" stroke-width="2.5" stroke-linecap="round"></line><line x1="140.0" y1="30.7" x2="180.0" y2="100.0" stroke="currentColor" stroke-width="2.5" stroke-linecap="round"></line><line x1="100.0" y1="100.0" x2="60.0" y2="30.7" stroke="currentColor" stroke-width="2.5" stroke-linecap="round"></line><line x1="100.0" y1="100.0" x2="20.0" y2="100.0" stroke="currentColor" stroke-width="2.5" stroke-linecap="round"></line><line x1="100.0" y1="100.0" x2="60.0" y2="169.3" stroke="currentColor" stroke-width="2.5" stroke-linecap="round"></line><line x1="100.0" y1="100.0" x2="133.6" y2="100.0" stroke="currentColor" stroke-width="1.875" stroke-linecap="round"></line><circle cx="180.0" cy="100.0" r="4.6" fill="currentColor"></circle><circle cx="140.0" cy="169.3" r="4.6" fill="currentColor"></circle><circle cx="60.0" cy="169.3" r="4.6" fill="currentColor"></circle><circle cx="20.0" cy="100.0" r="4.6" fill="currentColor"></circle><circle cx="60.0" cy="30.7" r="4.6" fill="currentColor"></circle><circle cx="140.0" cy="30.7" r="4.6" fill="currentColor"></circle><circle cx="100.0" cy="100.0" r="5.6" fill="currentColor"></circle><circle cx="133.6" cy="100.0" r="3.7" fill="currentColor"></circle></svg></g></g><defs><clipPath id="SvgjsClipPath1201"><rect width="1000" height="1000" x="0" y="0" rx="300" ry="300"></rect></clipPath></defs></svg></g><g id="dark-icon"><svg xmlns="http://www.w3.org/2000/svg" version="1.1" xmlns:xlink="http://www.w3.org/1999/xlink" width="1000" height="1000"><g><g transform="matrix(5,0,0,5,0,0)"><svg xmlns="http://www.w3.org/2000/svg" viewBox="0 0 200 200" fill="none" width="200" height="200"><line x1="180.0" y1="100.0" x2="140.0" y2="169.3" stroke="currentColor" stroke-width="2.5" stroke-linecap="round"></line><line x1="140.0" y1="169.3" x2="60.0" y2="169.3" stroke="currentColor" stroke-width="2.5" stroke-linecap="round"></line><line x1="60.0" y1="169.3" x2="20.0" y2="100.0" stroke="currentColor" stroke-width="2.5" stroke-linecap="round"></line><line x1="20.0" y1="100.0" x2="60.0" y2="30.7" stroke="currentColor" stroke-width="2.5" stroke-linecap="round"></line><line x1="60.0" y1="30.7" x2="140.0" y2="30.7" stroke="currentColor" stroke-width="2.5" stroke-linecap="round"></line><line x1="140.0" y1="30.7" x2="180.0" y2="100.0" stroke="currentColor" stroke-width="2.5" stroke-linecap="round"></line><line x1="100.0" y1="100.0" x2="60.0" y2="30.7" stroke="currentColor" stroke-width="2.5" stroke-linecap="round"></line><line x1="100.0" y1="100.0" x2="20.0" y2="100.0" stroke="currentColor" stroke-width="2.5" stroke-linecap="round"></line><line x1="100.0" y1="100.0" x2="60.0" y2="169.3" stroke="currentColor" stroke-width="2.5" stroke-linecap="round"></line><line x1="100.0" y1="100.0" x2="133.6" y2="100.0" stroke="currentColor" stroke-width="1.875" stroke-linecap="round"></line><circle cx="180.0" cy="100.0" r="4.6" fill="currentColor"></circle><circle cx="140.0" cy="169.3" r="4.6" fill="currentColor"></circle><circle cx="60.0" cy="169.3" r="4.6" fill="currentColor"></circle><circle cx="20.0" cy="100.0" r="4.6" fill="currentColor"></circle><circle cx="60.0" cy="30.7" r="4.6" fill="currentColor"></circle><circle cx="140.0" cy="30.7" r="4.6" fill="currentColor"></circle><circle cx="100.0" cy="100.0" r="5.6" fill="currentColor"></circle><circle cx="133.6" cy="100.0" r="3.7" fill="currentColor"></circle></svg></g></g></svg></g></svg>