<?xml version="1.0" standalone="no"?>
<!DOCTYPE svg PUBLIC "-//W3C//DTD SVG 20010904//EN"
 "http://www.w3.org/TR/2001/REC-SVG-20010904/DTD/svg10.dtd">
<svg version="1.0" xmlns="http://www.w3.org/2000/svg"
 width="1254.000000pt" height="1254.000000pt" viewBox="0 0 1254.000000 1254.000000"
 preserveAspectRatio="xMidYMid meet">
<metadata>
Created by potrace 1.16, written by Peter Selinger 2001-2019
</metadata>
<g transform="translate(0.000000,1254.000000) scale(0.100000,-0.100000)"
fill="#012624" stroke="none">
<path d="M2825 9615 l0 -725 3442 0 3442 0 -1 725 0 725 -3442 0 -3441 0 0
-725z"/>
<path d="M2857 7473 l-28 -4 4 -1142 3 -1142 17 -115 c30 -200 67 -358 121
-524 109 -332 265 -622 474 -881 101 -125 287 -311 414 -415 120 -99 284 -215
403 -285 125 -74 358 -188 485 -238 142 -56 333 -117 465 -151 123 -31 330
-69 535 -98 l155 -22 1900 -3 1901 -4 -1 763 0 763 -1795 6 -1795 5 -80 13
c-185 28 -399 87 -556 152 -101 41 -252 127 -351 201 -110 81 -242 217 -318
328 -34 50 -86 141 -115 203 l-54 112 -36 123 c-19 68 -42 175 -50 238 l-15
115 0 255 0 254 2125 0 2125 0 -2 748 -3 747 -2950 1 c-1622 0 -2963 -1 -2978
-3z"/>
</g>
</svg>
