<svg xmlns="http://www.w3.org/2000/svg" viewBox="0 0 931 238" fill="none"><path d="M0 0H148V26H0V0Z" fill="#ffffff"/><path d="M0 60H138V111H59V129C59 158 79 178 110 178H148V238H66C25 238 0 213 0 171V60Z" fill="#ffffff"/><path d="M176 60H224L270 187L316 60H365L294 238H242L176 60Z" fill="#ffffff"/><path d="M402 238V114C402 78 431 60 477 60H543V113H486C460 113 450 126 450 149V238H402Z" fill="#ffffff"/><path d="M575 0H632V32H575V0Z" fill="#ffffff"/><path d="M575 60H632V238H575V60Z" fill="#ffffff"/><path fill-rule="evenodd" clip-rule="evenodd" d="M735 58C809 58 865 97 865 149C865 201 809 238 735 238C661 238 605 201 605 149C605 97 661 58 735 58ZM735 105C696 105 669 124 657 151H812C799 123 772 105 735 105ZM658 177C672 202 697 214 735 214C771 214 798 202 811 177H658Z" fill="#ffffff"/><path d="M874 0H931V238H910C890 238 874 222 874 202V0Z" fill="#ffffff"/></svg>
