<?xml version="1.0" standalone="no"?>
<!DOCTYPE svg PUBLIC "-//W3C//DTD SVG 20010904//EN"
 "http://www.w3.org/TR/2001/REC-SVG-20010904/DTD/svg10.dtd">
<svg version="1.0" xmlns="http://www.w3.org/2000/svg"
 width="1448.000000pt" height="1086.000000pt" viewBox="0 0 1448.000000 1086.000000"
 preserveAspectRatio="xMidYMid meet">
<metadata>
Created by potrace 1.16, written by Peter Selinger 2001-2019
</metadata>
<g transform="translate(0.000000,1086.000000) scale(0.100000,-0.100000)"
fill="#ffffff" stroke="none">
<path d="M12553 7163 l-53 -4 0 -342 c0 -188 0 -800 -1 -1359 l0 -1017 16 -60
c22 -84 49 -144 102 -223 l45 -69 59 -49 c33 -27 79 -61 103 -75 63 -37 173
-73 236 -77 l55 -3 -1 33 c0 17 -1 757 -2 1642 l-2 1610 -252 -2 c-139 -1
-277 -3 -305 -5z"/>
<path d="M1497 7153 c-4 -3 -7 -134 -7 -290 l0 -283 1250 0 1250 0 0 290 0
290 -1243 0 c-684 0 -1247 -3 -1250 -7z"/>
<path d="M8790 6870 l0 -290 325 0 325 0 0 290 0 290 -325 0 -325 0 0 -290z"/>
<path d="M10815 6334 c-86 -13 -249 -60 -325 -94 -160 -71 -261 -142 -388
-274 -85 -88 -165 -203 -221 -314 -39 -77 -84 -211 -107 -317 l-17 -80 0 -160
0 -160 17 -80 c43 -197 119 -368 232 -518 176 -234 436 -397 723 -451 42 -8
114 -18 161 -21 l86 -7 123 12 c149 14 278 45 393 95 219 94 416 260 531 447
20 34 37 65 37 70 0 10 4 9 -308 63 l-263 46 -38 -33 c-62 -53 -160 -106 -246
-135 l-80 -27 -135 0 -135 -1 -80 28 c-44 16 -105 44 -135 62 -31 19 -87 65
-124 102 l-68 68 -43 90 c-24 50 -47 105 -50 123 l-7 32 912 0 911 0 7 18 c4
9 7 89 7 177 l-1 160 -17 87 c-20 99 -76 266 -114 342 -14 28 -51 89 -81 136
l-56 85 -90 90 c-103 103 -198 169 -336 233 l-95 45 -115 29 -115 29 -160 4
c-88 2 -173 1 -190 -1z m300 -539 c83 -17 212 -79 275 -131 25 -21 64 -61 88
-88 42 -50 112 -176 112 -202 l0 -14 -615 0 c-338 0 -615 2 -615 5 0 16 38 98
68 145 47 76 105 135 182 185 78 51 122 70 215 95 l70 19 75 0 c41 0 107 -6
145 -14z"/>
<path d="M7630 6279 c-47 -5 -130 -20 -185 -34 l-100 -25 -110 -55 -110 -54
-84 -67 c-210 -169 -353 -426 -396 -714 l-15 -95 0 -672 0 -673 315 0 315 0 0
634 0 634 16 83 15 84 35 72 34 71 50 55 c62 68 128 111 222 145 l73 27 363 3
362 4 0 294 0 294 -357 -1 c-197 -1 -396 -5 -443 -10z"/>
<path d="M8898 6282 l-108 -3 0 -1194 0 -1195 325 0 325 0 -2 1198 -3 1197
-215 0 c-118 0 -263 -1 -322 -3z"/>
<path d="M3995 6263 c4 -10 15 -40 25 -68 10 -27 88 -230 173 -450 85 -220
259 -670 387 -1000 127 -330 253 -656 280 -725 l48 -125 380 -3 380 -2 37 97
c65 169 528 1367 814 2108 l70 180 -322 3 c-176 1 -324 -1 -328 -5 -9 -10
-346 -912 -570 -1530 -41 -112 -76 -203 -80 -203 -3 0 -56 141 -119 313 -62
171 -207 562 -321 867 l-207 555 -327 3 -327 2 7 -17z"/>
<path d="M1490 5522 l0 -417 10 -90 c20 -182 65 -336 142 -487 58 -115 123
-202 215 -292 94 -92 167 -144 280 -200 116 -58 206 -90 333 -118 l95 -21 713
-4 712 -4 0 295 0 295 -642 3 -643 4 -79 22 c-43 12 -110 39 -149 59 l-71 38
-77 75 -76 75 -47 95 -46 95 -16 70 c-8 39 -18 125 -21 192 l-6 123 774 2 774
3 0 300 0 300 -1087 2 -1088 2 0 -417z"/>
</g>
</svg>
